<mxfile host="app.diagrams.net" modified="2024-05-19T23:04:07.810Z" agent="Mozilla/5.0 (Windows NT 10.0; Win64; x64; rv:126.0) Gecko/20100101 Firefox/126.0" etag="txAPd2cf0J2n1xL6mivv" version="24.0.4" type="github">
  <diagram name="Seite-1" id="LwNk8SBRzuiJmvCyk15g">
    <mxGraphModel dx="2261" dy="1923" grid="1" gridSize="10" guides="1" tooltips="1" connect="1" arrows="1" fold="1" page="1" pageScale="1" pageWidth="827" pageHeight="1169" math="0" shadow="0">
      <root>
        <mxCell id="0" />
        <mxCell id="1" parent="0" />
        <mxCell id="m9Sqk9ulIaDVNTOqSalp-82" style="edgeStyle=orthogonalEdgeStyle;rounded=0;orthogonalLoop=1;jettySize=auto;html=1;entryX=0.5;entryY=0;entryDx=0;entryDy=0;" edge="1" parent="1" source="m9Sqk9ulIaDVNTOqSalp-1" target="m9Sqk9ulIaDVNTOqSalp-2">
          <mxGeometry relative="1" as="geometry" />
        </mxCell>
        <mxCell id="m9Sqk9ulIaDVNTOqSalp-1" value="Start" style="rounded=0;whiteSpace=wrap;html=1;fillColor=#d5e8d4;strokeColor=#82b366;" vertex="1" parent="1">
          <mxGeometry x="160" y="-180" width="120" height="60" as="geometry" />
        </mxCell>
        <mxCell id="m9Sqk9ulIaDVNTOqSalp-80" value="" style="edgeStyle=orthogonalEdgeStyle;rounded=0;orthogonalLoop=1;jettySize=auto;html=1;" edge="1" parent="1" source="m9Sqk9ulIaDVNTOqSalp-2" target="m9Sqk9ulIaDVNTOqSalp-79">
          <mxGeometry relative="1" as="geometry" />
        </mxCell>
        <mxCell id="m9Sqk9ulIaDVNTOqSalp-2" value="Schleife" style="rounded=0;whiteSpace=wrap;html=1;" vertex="1" parent="1">
          <mxGeometry x="160" y="-80" width="120" height="60" as="geometry" />
        </mxCell>
        <mxCell id="m9Sqk9ulIaDVNTOqSalp-7" value="" style="edgeStyle=orthogonalEdgeStyle;rounded=0;orthogonalLoop=1;jettySize=auto;html=1;" edge="1" parent="1" source="m9Sqk9ulIaDVNTOqSalp-5" target="m9Sqk9ulIaDVNTOqSalp-6">
          <mxGeometry relative="1" as="geometry" />
        </mxCell>
        <mxCell id="m9Sqk9ulIaDVNTOqSalp-11" value="FEST" style="edgeLabel;html=1;align=center;verticalAlign=middle;resizable=0;points=[];" vertex="1" connectable="0" parent="m9Sqk9ulIaDVNTOqSalp-7">
          <mxGeometry x="-0.1667" y="-3" relative="1" as="geometry">
            <mxPoint as="offset" />
          </mxGeometry>
        </mxCell>
        <mxCell id="m9Sqk9ulIaDVNTOqSalp-9" value="" style="edgeStyle=orthogonalEdgeStyle;rounded=0;orthogonalLoop=1;jettySize=auto;html=1;" edge="1" parent="1" source="m9Sqk9ulIaDVNTOqSalp-5" target="m9Sqk9ulIaDVNTOqSalp-8">
          <mxGeometry relative="1" as="geometry" />
        </mxCell>
        <mxCell id="m9Sqk9ulIaDVNTOqSalp-10" value="DCA" style="edgeLabel;html=1;align=center;verticalAlign=middle;resizable=0;points=[];" vertex="1" connectable="0" parent="m9Sqk9ulIaDVNTOqSalp-9">
          <mxGeometry x="-0.1667" y="-1" relative="1" as="geometry">
            <mxPoint as="offset" />
          </mxGeometry>
        </mxCell>
        <mxCell id="m9Sqk9ulIaDVNTOqSalp-5" value="DCA/Fest" style="rhombus;whiteSpace=wrap;html=1;" vertex="1" parent="1">
          <mxGeometry x="180" y="200" width="80" height="80" as="geometry" />
        </mxCell>
        <mxCell id="m9Sqk9ulIaDVNTOqSalp-13" value="" style="edgeStyle=orthogonalEdgeStyle;rounded=0;orthogonalLoop=1;jettySize=auto;html=1;" edge="1" parent="1" source="m9Sqk9ulIaDVNTOqSalp-6" target="m9Sqk9ulIaDVNTOqSalp-12">
          <mxGeometry relative="1" as="geometry" />
        </mxCell>
        <mxCell id="m9Sqk9ulIaDVNTOqSalp-6" value="Kaufen" style="whiteSpace=wrap;html=1;" vertex="1" parent="1">
          <mxGeometry x="320" y="210" width="120" height="60" as="geometry" />
        </mxCell>
        <mxCell id="m9Sqk9ulIaDVNTOqSalp-52" style="edgeStyle=orthogonalEdgeStyle;rounded=0;orthogonalLoop=1;jettySize=auto;html=1;entryX=1;entryY=0.5;entryDx=0;entryDy=0;" edge="1" parent="1" source="m9Sqk9ulIaDVNTOqSalp-8" target="m9Sqk9ulIaDVNTOqSalp-48">
          <mxGeometry relative="1" as="geometry" />
        </mxCell>
        <mxCell id="m9Sqk9ulIaDVNTOqSalp-8" value="&lt;div&gt;Balance&lt;/div&gt;&lt;div&gt;abfragen&lt;br&gt;&lt;/div&gt;" style="whiteSpace=wrap;html=1;" vertex="1" parent="1">
          <mxGeometry y="210" width="120" height="60" as="geometry" />
        </mxCell>
        <mxCell id="m9Sqk9ulIaDVNTOqSalp-15" value="" style="edgeStyle=orthogonalEdgeStyle;rounded=0;orthogonalLoop=1;jettySize=auto;html=1;" edge="1" parent="1" source="m9Sqk9ulIaDVNTOqSalp-12" target="m9Sqk9ulIaDVNTOqSalp-14">
          <mxGeometry relative="1" as="geometry" />
        </mxCell>
        <mxCell id="m9Sqk9ulIaDVNTOqSalp-16" value="JA" style="edgeLabel;html=1;align=center;verticalAlign=middle;resizable=0;points=[];" vertex="1" connectable="0" parent="m9Sqk9ulIaDVNTOqSalp-15">
          <mxGeometry x="-0.1111" relative="1" as="geometry">
            <mxPoint as="offset" />
          </mxGeometry>
        </mxCell>
        <mxCell id="m9Sqk9ulIaDVNTOqSalp-20" value="" style="edgeStyle=orthogonalEdgeStyle;rounded=0;orthogonalLoop=1;jettySize=auto;html=1;entryX=0.5;entryY=0;entryDx=0;entryDy=0;" edge="1" parent="1" source="m9Sqk9ulIaDVNTOqSalp-12" target="m9Sqk9ulIaDVNTOqSalp-19">
          <mxGeometry relative="1" as="geometry">
            <mxPoint x="760" y="360" as="targetPoint" />
          </mxGeometry>
        </mxCell>
        <mxCell id="m9Sqk9ulIaDVNTOqSalp-21" value="NEIN" style="edgeLabel;html=1;align=center;verticalAlign=middle;resizable=0;points=[];" vertex="1" connectable="0" parent="m9Sqk9ulIaDVNTOqSalp-20">
          <mxGeometry x="-0.3778" relative="1" as="geometry">
            <mxPoint as="offset" />
          </mxGeometry>
        </mxCell>
        <mxCell id="m9Sqk9ulIaDVNTOqSalp-31" style="edgeStyle=orthogonalEdgeStyle;rounded=0;orthogonalLoop=1;jettySize=auto;html=1;entryX=0.5;entryY=0;entryDx=0;entryDy=0;" edge="1" parent="1" target="m9Sqk9ulIaDVNTOqSalp-25">
          <mxGeometry relative="1" as="geometry">
            <mxPoint x="580" y="310" as="sourcePoint" />
          </mxGeometry>
        </mxCell>
        <mxCell id="m9Sqk9ulIaDVNTOqSalp-12" value="Fehler" style="rhombus;whiteSpace=wrap;html=1;" vertex="1" parent="1">
          <mxGeometry x="540" y="200" width="80" height="80" as="geometry" />
        </mxCell>
        <mxCell id="m9Sqk9ulIaDVNTOqSalp-18" value="" style="edgeStyle=orthogonalEdgeStyle;rounded=0;orthogonalLoop=1;jettySize=auto;html=1;entryX=1;entryY=0.5;entryDx=0;entryDy=0;" edge="1" parent="1" source="m9Sqk9ulIaDVNTOqSalp-14" target="m9Sqk9ulIaDVNTOqSalp-28">
          <mxGeometry relative="1" as="geometry">
            <mxPoint x="720" y="80" as="targetPoint" />
            <Array as="points">
              <mxPoint x="920" y="80" />
              <mxPoint x="920" y="670" />
            </Array>
          </mxGeometry>
        </mxCell>
        <mxCell id="m9Sqk9ulIaDVNTOqSalp-14" value="msg Fehler" style="whiteSpace=wrap;html=1;" vertex="1" parent="1">
          <mxGeometry x="520" y="50" width="120" height="60" as="geometry" />
        </mxCell>
        <mxCell id="m9Sqk9ulIaDVNTOqSalp-23" value="" style="edgeStyle=orthogonalEdgeStyle;rounded=0;orthogonalLoop=1;jettySize=auto;html=1;" edge="1" parent="1" source="m9Sqk9ulIaDVNTOqSalp-19" target="m9Sqk9ulIaDVNTOqSalp-22">
          <mxGeometry relative="1" as="geometry" />
        </mxCell>
        <mxCell id="m9Sqk9ulIaDVNTOqSalp-19" value="Trade abfragen" style="whiteSpace=wrap;html=1;" vertex="1" parent="1">
          <mxGeometry x="520" y="370" width="120" height="60" as="geometry" />
        </mxCell>
        <mxCell id="m9Sqk9ulIaDVNTOqSalp-30" style="edgeStyle=orthogonalEdgeStyle;rounded=0;orthogonalLoop=1;jettySize=auto;html=1;entryX=0.5;entryY=0;entryDx=0;entryDy=0;" edge="1" parent="1" source="m9Sqk9ulIaDVNTOqSalp-22" target="m9Sqk9ulIaDVNTOqSalp-28">
          <mxGeometry relative="1" as="geometry" />
        </mxCell>
        <mxCell id="m9Sqk9ulIaDVNTOqSalp-22" value="&lt;div&gt;msg&lt;/div&gt;&lt;div&gt;Trade&lt;/div&gt;&lt;div&gt;erstellen&lt;br&gt;&lt;/div&gt;" style="whiteSpace=wrap;html=1;" vertex="1" parent="1">
          <mxGeometry x="520" y="510" width="120" height="60" as="geometry" />
        </mxCell>
        <mxCell id="m9Sqk9ulIaDVNTOqSalp-27" value="" style="edgeStyle=orthogonalEdgeStyle;rounded=0;orthogonalLoop=1;jettySize=auto;html=1;" edge="1" parent="1" source="m9Sqk9ulIaDVNTOqSalp-25" target="m9Sqk9ulIaDVNTOqSalp-26">
          <mxGeometry relative="1" as="geometry" />
        </mxCell>
        <mxCell id="m9Sqk9ulIaDVNTOqSalp-25" value="&lt;div&gt;Balance&lt;/div&gt;&lt;div&gt;abfragen&lt;br&gt;&lt;/div&gt;" style="rounded=0;whiteSpace=wrap;html=1;" vertex="1" parent="1">
          <mxGeometry x="740" y="370" width="120" height="60" as="geometry" />
        </mxCell>
        <mxCell id="m9Sqk9ulIaDVNTOqSalp-29" value="" style="edgeStyle=orthogonalEdgeStyle;rounded=0;orthogonalLoop=1;jettySize=auto;html=1;" edge="1" parent="1" source="m9Sqk9ulIaDVNTOqSalp-26" target="m9Sqk9ulIaDVNTOqSalp-28">
          <mxGeometry relative="1" as="geometry" />
        </mxCell>
        <mxCell id="m9Sqk9ulIaDVNTOqSalp-26" value="&lt;div&gt;msg&lt;/div&gt;&lt;div&gt;balance&lt;/div&gt;&lt;div&gt;erstellen&lt;br&gt;&lt;/div&gt;" style="whiteSpace=wrap;html=1;rounded=0;" vertex="1" parent="1">
          <mxGeometry x="740" y="510" width="120" height="60" as="geometry" />
        </mxCell>
        <mxCell id="m9Sqk9ulIaDVNTOqSalp-28" value="&lt;div&gt;Telegram&lt;/div&gt;" style="whiteSpace=wrap;html=1;rounded=0;" vertex="1" parent="1">
          <mxGeometry x="640" y="640" width="120" height="60" as="geometry" />
        </mxCell>
        <mxCell id="m9Sqk9ulIaDVNTOqSalp-56" style="edgeStyle=orthogonalEdgeStyle;rounded=0;orthogonalLoop=1;jettySize=auto;html=1;entryX=1;entryY=0.5;entryDx=0;entryDy=0;" edge="1" parent="1" source="m9Sqk9ulIaDVNTOqSalp-32" target="m9Sqk9ulIaDVNTOqSalp-36">
          <mxGeometry relative="1" as="geometry" />
        </mxCell>
        <mxCell id="m9Sqk9ulIaDVNTOqSalp-63" value="" style="edgeStyle=orthogonalEdgeStyle;rounded=0;orthogonalLoop=1;jettySize=auto;html=1;" edge="1" parent="1" source="m9Sqk9ulIaDVNTOqSalp-32" target="m9Sqk9ulIaDVNTOqSalp-34">
          <mxGeometry relative="1" as="geometry" />
        </mxCell>
        <mxCell id="m9Sqk9ulIaDVNTOqSalp-65" value="" style="edgeStyle=orthogonalEdgeStyle;rounded=0;orthogonalLoop=1;jettySize=auto;html=1;" edge="1" parent="1" source="m9Sqk9ulIaDVNTOqSalp-32" target="m9Sqk9ulIaDVNTOqSalp-38">
          <mxGeometry relative="1" as="geometry" />
        </mxCell>
        <mxCell id="m9Sqk9ulIaDVNTOqSalp-32" value="&lt;div&gt;Einzahlung&lt;/div&gt;&lt;div&gt;Auszahlung&lt;br&gt;&lt;/div&gt;" style="rhombus;whiteSpace=wrap;html=1;" vertex="1" parent="1">
          <mxGeometry x="-210" y="480" width="80" height="80" as="geometry" />
        </mxCell>
        <mxCell id="m9Sqk9ulIaDVNTOqSalp-62" value="" style="edgeStyle=orthogonalEdgeStyle;rounded=0;orthogonalLoop=1;jettySize=auto;html=1;" edge="1" parent="1" source="m9Sqk9ulIaDVNTOqSalp-34" target="m9Sqk9ulIaDVNTOqSalp-61">
          <mxGeometry relative="1" as="geometry" />
        </mxCell>
        <mxCell id="m9Sqk9ulIaDVNTOqSalp-74" style="edgeStyle=orthogonalEdgeStyle;rounded=0;orthogonalLoop=1;jettySize=auto;html=1;entryX=0.5;entryY=1;entryDx=0;entryDy=0;" edge="1" parent="1" source="m9Sqk9ulIaDVNTOqSalp-34" target="m9Sqk9ulIaDVNTOqSalp-6">
          <mxGeometry relative="1" as="geometry" />
        </mxCell>
        <mxCell id="m9Sqk9ulIaDVNTOqSalp-34" value="Einzahlung" style="whiteSpace=wrap;html=1;" vertex="1" parent="1">
          <mxGeometry x="-230" y="620" width="120" height="60" as="geometry" />
        </mxCell>
        <mxCell id="m9Sqk9ulIaDVNTOqSalp-64" value="" style="edgeStyle=orthogonalEdgeStyle;rounded=0;orthogonalLoop=1;jettySize=auto;html=1;" edge="1" parent="1" source="m9Sqk9ulIaDVNTOqSalp-36" target="m9Sqk9ulIaDVNTOqSalp-61">
          <mxGeometry relative="1" as="geometry" />
        </mxCell>
        <mxCell id="m9Sqk9ulIaDVNTOqSalp-71" value="" style="edgeStyle=orthogonalEdgeStyle;rounded=0;orthogonalLoop=1;jettySize=auto;html=1;" edge="1" parent="1" source="m9Sqk9ulIaDVNTOqSalp-36" target="m9Sqk9ulIaDVNTOqSalp-61">
          <mxGeometry relative="1" as="geometry" />
        </mxCell>
        <mxCell id="m9Sqk9ulIaDVNTOqSalp-75" style="edgeStyle=orthogonalEdgeStyle;rounded=0;orthogonalLoop=1;jettySize=auto;html=1;entryX=0.5;entryY=1;entryDx=0;entryDy=0;" edge="1" parent="1" source="m9Sqk9ulIaDVNTOqSalp-36" target="m9Sqk9ulIaDVNTOqSalp-6">
          <mxGeometry relative="1" as="geometry">
            <Array as="points">
              <mxPoint x="-340" y="440" />
              <mxPoint x="380" y="440" />
            </Array>
          </mxGeometry>
        </mxCell>
        <mxCell id="m9Sqk9ulIaDVNTOqSalp-36" value="Auszahlung" style="whiteSpace=wrap;html=1;" vertex="1" parent="1">
          <mxGeometry x="-400" y="490" width="120" height="60" as="geometry" />
        </mxCell>
        <mxCell id="m9Sqk9ulIaDVNTOqSalp-73" style="edgeStyle=orthogonalEdgeStyle;rounded=0;orthogonalLoop=1;jettySize=auto;html=1;entryX=0.5;entryY=1;entryDx=0;entryDy=0;" edge="1" parent="1" source="m9Sqk9ulIaDVNTOqSalp-38" target="m9Sqk9ulIaDVNTOqSalp-6">
          <mxGeometry relative="1" as="geometry" />
        </mxCell>
        <mxCell id="m9Sqk9ulIaDVNTOqSalp-38" value="keine Änderung" style="whiteSpace=wrap;html=1;" vertex="1" parent="1">
          <mxGeometry x="-30" y="490" width="120" height="60" as="geometry" />
        </mxCell>
        <mxCell id="m9Sqk9ulIaDVNTOqSalp-59" value="" style="edgeStyle=orthogonalEdgeStyle;rounded=0;orthogonalLoop=1;jettySize=auto;html=1;" edge="1" parent="1" source="m9Sqk9ulIaDVNTOqSalp-48" target="m9Sqk9ulIaDVNTOqSalp-58">
          <mxGeometry relative="1" as="geometry" />
        </mxCell>
        <mxCell id="m9Sqk9ulIaDVNTOqSalp-77" style="edgeStyle=orthogonalEdgeStyle;rounded=0;orthogonalLoop=1;jettySize=auto;html=1;entryX=0.5;entryY=0;entryDx=0;entryDy=0;" edge="1" parent="1" source="m9Sqk9ulIaDVNTOqSalp-48" target="m9Sqk9ulIaDVNTOqSalp-14">
          <mxGeometry relative="1" as="geometry">
            <Array as="points">
              <mxPoint x="-170" y="-280" />
              <mxPoint x="580" y="-280" />
            </Array>
          </mxGeometry>
        </mxCell>
        <mxCell id="m9Sqk9ulIaDVNTOqSalp-78" value="JA" style="edgeLabel;html=1;align=center;verticalAlign=middle;resizable=0;points=[];" vertex="1" connectable="0" parent="m9Sqk9ulIaDVNTOqSalp-77">
          <mxGeometry x="0.0854" y="-1" relative="1" as="geometry">
            <mxPoint as="offset" />
          </mxGeometry>
        </mxCell>
        <mxCell id="m9Sqk9ulIaDVNTOqSalp-48" value="Fehler" style="rhombus;whiteSpace=wrap;html=1;" vertex="1" parent="1">
          <mxGeometry x="-210" y="200" width="80" height="80" as="geometry" />
        </mxCell>
        <mxCell id="m9Sqk9ulIaDVNTOqSalp-60" value="" style="edgeStyle=orthogonalEdgeStyle;rounded=0;orthogonalLoop=1;jettySize=auto;html=1;" edge="1" parent="1" source="m9Sqk9ulIaDVNTOqSalp-58" target="m9Sqk9ulIaDVNTOqSalp-32">
          <mxGeometry relative="1" as="geometry" />
        </mxCell>
        <mxCell id="m9Sqk9ulIaDVNTOqSalp-58" value="CSV-Daten" style="rounded=0;whiteSpace=wrap;html=1;" vertex="1" parent="1">
          <mxGeometry x="-230" y="350" width="120" height="60" as="geometry" />
        </mxCell>
        <mxCell id="m9Sqk9ulIaDVNTOqSalp-76" style="edgeStyle=orthogonalEdgeStyle;rounded=0;orthogonalLoop=1;jettySize=auto;html=1;entryX=0.5;entryY=1;entryDx=0;entryDy=0;" edge="1" parent="1" source="m9Sqk9ulIaDVNTOqSalp-61" target="m9Sqk9ulIaDVNTOqSalp-28">
          <mxGeometry relative="1" as="geometry">
            <Array as="points">
              <mxPoint x="-340" y="720" />
              <mxPoint x="700" y="720" />
            </Array>
          </mxGeometry>
        </mxCell>
        <mxCell id="m9Sqk9ulIaDVNTOqSalp-61" value="&lt;div&gt;msg&lt;/div&gt;&lt;div&gt;Ein-Auszahlung&lt;br&gt;&lt;/div&gt;" style="whiteSpace=wrap;html=1;" vertex="1" parent="1">
          <mxGeometry x="-400" y="620" width="120" height="60" as="geometry" />
        </mxCell>
        <mxCell id="m9Sqk9ulIaDVNTOqSalp-84" value="" style="edgeStyle=orthogonalEdgeStyle;rounded=0;orthogonalLoop=1;jettySize=auto;html=1;" edge="1" parent="1" source="m9Sqk9ulIaDVNTOqSalp-79" target="m9Sqk9ulIaDVNTOqSalp-83">
          <mxGeometry relative="1" as="geometry" />
        </mxCell>
        <mxCell id="m9Sqk9ulIaDVNTOqSalp-79" value="&lt;div&gt;aktuellen Preis&lt;/div&gt;&lt;div&gt;abrufen&lt;br&gt;&lt;/div&gt;" style="whiteSpace=wrap;html=1;rounded=0;" vertex="1" parent="1">
          <mxGeometry x="160" y="10" width="120" height="60" as="geometry" />
        </mxCell>
        <mxCell id="m9Sqk9ulIaDVNTOqSalp-85" style="edgeStyle=orthogonalEdgeStyle;rounded=0;orthogonalLoop=1;jettySize=auto;html=1;entryX=0.5;entryY=0;entryDx=0;entryDy=0;" edge="1" parent="1" source="m9Sqk9ulIaDVNTOqSalp-83" target="m9Sqk9ulIaDVNTOqSalp-5">
          <mxGeometry relative="1" as="geometry" />
        </mxCell>
        <mxCell id="m9Sqk9ulIaDVNTOqSalp-86" value="NEIN" style="edgeLabel;html=1;align=center;verticalAlign=middle;resizable=0;points=[];" vertex="1" connectable="0" parent="m9Sqk9ulIaDVNTOqSalp-85">
          <mxGeometry x="0.6667" y="-3" relative="1" as="geometry">
            <mxPoint as="offset" />
          </mxGeometry>
        </mxCell>
        <mxCell id="m9Sqk9ulIaDVNTOqSalp-87" style="edgeStyle=orthogonalEdgeStyle;rounded=0;orthogonalLoop=1;jettySize=auto;html=1;entryX=0;entryY=0.5;entryDx=0;entryDy=0;" edge="1" parent="1" source="m9Sqk9ulIaDVNTOqSalp-83" target="m9Sqk9ulIaDVNTOqSalp-14">
          <mxGeometry relative="1" as="geometry" />
        </mxCell>
        <mxCell id="m9Sqk9ulIaDVNTOqSalp-88" value="JA" style="edgeLabel;html=1;align=center;verticalAlign=middle;resizable=0;points=[];" vertex="1" connectable="0" parent="m9Sqk9ulIaDVNTOqSalp-87">
          <mxGeometry x="-0.35" y="-2" relative="1" as="geometry">
            <mxPoint as="offset" />
          </mxGeometry>
        </mxCell>
        <mxCell id="m9Sqk9ulIaDVNTOqSalp-83" value="Fehler" style="rhombus;whiteSpace=wrap;html=1;rounded=0;" vertex="1" parent="1">
          <mxGeometry x="180" y="100" width="80" height="80" as="geometry" />
        </mxCell>
      </root>
    </mxGraphModel>
  </diagram>
</mxfile>
